inDegrees=no
num_controls=7
num_derivatives=13
num_iterations=128
num_multipliers=7
num_parameters=0
num_slacks=7
num_states=26
objective=0.477034
objective_accelerations=0.044464
objective_balance=0.003657
objective_effort=0.040620
objective_height=0.382631
objective_ligament=0.005662
solver_duration=1760.258892
status=Solve_Succeeded
success=true
DataType=double
version=3
OpenSimVersion=4.5
endheader
time	/jointset/ground_pelvis/pelvis_tilt/value	/jointset/ground_pelvis/pelvis_tx/value	/jointset/ground_pelvis/pelvis_ty/value	/jointset/hip_l/hip_flexion_l/value	/jointset/hip_l/hip_adduction_l/value	/jointset/hip_l/hip_rotation_l/value	/jointset/back/lumbar_extension/value	/jointset/patellofemoral_l/patellar_flexion_l/value	/jointset/knee_l/knee_flexion_l/value	/jointset/knee_l/knee_adduction_l/value	/jointset/knee_l/knee_rotation_l/value	/jointset/ankle_l/ankle_angle_l/value	/jointset/subtalar_l/subtalar_angle_l/value	/jointset/ground_pelvis/pelvis_tilt/speed	/jointset/ground_pelvis/pelvis_tx/speed	/jointset/ground_pelvis/pelvis_ty/speed	/jointset/hip_l/hip_flexion_l/speed	/jointset/hip_l/hip_adduction_l/speed	/jointset/hip_l/hip_rotation_l/speed	/jointset/back/lumbar_extension/speed	/jointset/patellofemoral_l/patellar_flexion_l/speed	/jointset/knee_l/knee_flexion_l/speed	/jointset/knee_l/knee_adduction_l/speed	/jointset/knee_l/knee_rotation_l/speed	/jointset/ankle_l/ankle_angle_l/speed	/jointset/subtalar_l/subtalar_angle_l/speed	/forceset/tau_hip_flexion_l	/forceset/tau_hip_adduction_l	/forceset/tau_hip_rotation_l	/forceset/tau_knee_flexion_l	/forceset/tau_ankle_angle_l	/forceset/tau_subtalar_angle_l	/forceset/tau_lumbar_extension	lambda_cid13_p0	lambda_cid13_p1	lambda_cid13_p2	lambda_cid13_p3	lambda_cid13_p4	lambda_cid13_p5	lambda_cid14_p0	/jointset/ground_pelvis/pelvis_tilt/accel	/jointset/ground_pelvis/pelvis_tx/accel	/jointset/ground_pelvis/pelvis_ty/accel	/jointset/hip_l/hip_flexion_l/accel	/jointset/hip_l/hip_adduction_l/accel	/jointset/hip_l/hip_rotation_l/accel	/jointset/back/lumbar_extension/accel	/jointset/patellofemoral_l/patellar_flexion_l/accel	/jointset/knee_l/knee_flexion_l/accel	/jointset/knee_l/knee_adduction_l/accel	/jointset/knee_l/knee_rotation_l/accel	/jointset/ankle_l/ankle_angle_l/accel	/jointset/subtalar_l/subtalar_angle_l/accel	gamma_cid13_p0	gamma_cid13_p1	gamma_cid13_p2	gamma_cid13_p3	gamma_cid13_p4	gamma_cid13_p5	gamma_cid14_p0
0.5	-0.09568860813499631	-0.04259209987255815	0.8063043826340036	0.9331705796524171	-0.3296738560279635	-0.07864143011552913	-0.7914111216959423	0.9213947586095579	0.9213947586095662	-0.1033405135968451	-0.174482422579208	0.1479724739756981	0.01294467296247599	-0.130510311829288	-0.1592947327556425	-0.417232901857629	1.603061702346855	-0.02944073820723066	0.5630494469656265	-0.8369318091503755	1.780585852695672	1.780585852695673	0.1506656284979787	0.0004490297899587173	0.4293365399512739	0.1140423778015058	-0.272046580279231	0.0191360256660447	-0.004738325143835344	-0.2479249620503826	0.08669910650649156	0.04704645532528876	0.3282113358525822	-16.19832178034995	-19.26759205917094	4.526757707112534	-9.514922105823183	-701.6391725644636	-76.60995549728612	-9.749490050523216	0.2834659594949076	0.6775191370170762	-0.1927485201394844	-1.51149220569948	0.3347139297658788	-0.5062040277741287	1.910110883041278	-1.420776559126551	-1.42077655912655	-0.2148667536167567	0.005993133719866496	-0.2607934401050755	0.34424609044693	-2.544626532794905e-07	-1.546287855108074e-07	1.5213404852492e-06	1.433475887242872e-07	-2.811246817512873e-07	-8.78711076472526e-08	-2.167302549837799e-07
0.51	-0.09697934124854479	-0.04415114650727504	0.8021233450903428	0.9491232100210891	-0.3299523759113787	-0.07303541189405627	-0.7996840618534968	0.9391268062840761	0.9391268062840893	-0.1018471648490314	-0.17447757575663	0.1522517467900137	0.01410100067514836	-0.1276159606001693	-0.1525134498091799	-0.4188792706461026	1.58724281007999	-0.0262731469725138	0.5580828847401973	-0.8175687755318146	1.765570529152359	1.765570529152315	0.1480009711760015	0.0005131109983799636	0.426447058494499	0.1171931507818966	-0.278297918105898	0.01946690965576256	-0.004882493817407516	-0.2515288968087298	0.08565323111037532	0.04709121141457476	0.3344811715809459	-16.79689482866443	-19.12406475608202	4.43744317535453	-9.282054832614003	-706.2075485493707	-76.42971412391951	-9.026763549939112	0.2954486553161421	0.6786333428010503	-0.1363349181973876	-1.650353176768254	0.3060893376494654	-0.5027774351656208	1.962516625631621	-1.579840826464672	-1.579840826471516	-0.2927314601168176	0.005829253710813092	-0.3136678058430499	0.2958346438833312	-2.450833417901293e-07	-1.487263191003437e-07	1.48340891618166e-06	1.390605587505221e-07	-2.675163070260063e-07	-5.859729652842422e-08	-2.121098047625388e-07
0.52	-0.09824052505966452	-0.04564234021865936	0.797928693086798	0.9649109983791726	-0.3301995583589815	-0.06748123831788727	-0.8077607482699926	0.9567011146082558	0.9567011146082733	-0.1003805559221653	-0.1744722453941059	0.1564999963282853	0.01528790446603429	-0.1246004513432125	-0.1457241480891308	-0.4199557938344187	1.570093300229594	-0.02317325104480075	0.5526805179052366	-0.797681060938523	1.749037982627805	1.749037982627714	0.1453176643088789	0.0005457377791028985	0.423131884742549	0.120157593444214	-0.284549255932572	0.01979779364547516	-0.005026662490991382	-0.2551328315670779	0.08460735571425838	0.04713596750385458	0.3407510073093047	-17.39745751242868	-18.98038281444717	4.348326696066041	-9.093465892106435	-710.8387548563828	-76.30162437650328	-8.306065564612588	0.3076975650625944	0.679122891734344	-0.07877940010798087	-1.777615722405615	0.3211748683651227	-0.5933649496803836	2.015047077987487	-1.724221155374958	-1.724221155374958	-0.218596662645856	-0.0002977518197959071	-0.3459318991401623	0.3069800268322271	-2.403237792308322e-07	-1.914779718627477e-07	1.436355763471242e-06	1.289529327746199e-07	-2.595258021015017e-07	-4.483562585036566e-08	-2.124952786647782e-07
0.53	-0.09947097563899482	-0.04706565243146293	0.7937261460222981	0.9805207410780742	-0.3304161323621269	-0.06198335065226696	-0.8156361111954394	0.974102648473496	0.9741026484734959	-0.09894082238385782	-0.1744669161196566	0.1607130300192879	0.01650346581580975	-0.1214721490113248	-0.1389417686956298	-0.4204565069026285	1.551642217749332	-0.02015525743568676	0.5468343196130235	-0.7773204477296498	1.731027297059222	1.731027297059216	0.1426216856889748	0.000516401414129151	0.4194107110138111	0.1229213732970033	-0.2904929121753955	0.02001159289146945	-0.005125356085948981	-0.2589137800760283	0.08369768314981295	0.04701869142172033	0.3467265382429419	-17.95709275980714	-18.76443595188646	4.237338669262811	-8.850329614509167	-715.3706180780536	-76.08064529289803	-7.592502831270083	0.3180017062399383	0.6772990582258411	-0.02120150150864062	-1.910836945321132	0.2898708798746076	-0.5898479544357227	2.057229905573093	-1.875673722183426	-1.875673722170767	-0.2962186709173158	-0.004529029296369171	-0.3948332558811617	0.2559501788824631	-2.310299318828247e-07	-1.922167614542712e-07	1.392888692314395e-06	1.235744926008937e-07	-2.472201058331459e-07	-2.000300081103451e-08	-2.078856762124476e-07
0.54	-0.1006696221672102	-0.04842124013131802	0.7895214949788497	0.9959395764652743	-0.330602974574643	-0.05654584510665866	-0.8233057356961507	0.9913168391901339	0.991316839190118	-0.09752827267360055	-0.1744619356989496	0.1648869273437747	0.01774563960698915	-0.1182396411199081	-0.1321792454994347	-0.420376589624083	1.531911837889683	-0.01722689291896948	0.5406040939030526	-0.7565333759913371	1.711569352907299	1.711569352907378	0.1398808986988853	0.0004759670307467727	0.4153046114394509	0.1254800817249998	-0.296436568418224	0.0202253921374609	-0.005224049680906038	-0.2626947285849794	0.08278801058536747	0.04690141533958272	0.3527020691765749	-18.5183943200839	-18.55108136365651	4.130059431411743	-8.656088120991601	-719.9556382181104	-75.91454323676994	-6.90937700741442	0.3285386769684348	0.6751516522731154	0.03734666924309732	-2.033475198283101	0.3032490498857809	-0.6701704332319387	2.100338783875431	-2.013672872042946	-2.013672872042916	-0.2275583366829484	-0.002517355501526202	-0.4229170682646426	0.2659657418736637	-2.167194290239036e-07	-1.464732343460967e-07	1.353389200748731e-06	1.234283431019155e-07	-2.301401553120185e-07	1.707833969183242e-08	-1.977496063039969e-07
0.55	-0.1018354596775839	-0.04970936392091908	0.7853205465975474	1.011154885257191	-0.3307609387489199	-0.05117250216852296	-0.8307654877613457	1.008329390825136	1.008329390825121	-0.09614324978240786	-0.1744573734740281	0.1690179222713106	0.0190124339577627	-0.114911655053248	-0.12545469958084	-0.4197154696895238	1.510945882961775	-0.01438366453506048	0.5340020581929981	-0.7353612123742532	1.690711461405487	1.690711461405536	0.1371160734557418	0.0004294707361561108	0.4108347699435653	0.1278410926018229	-0.3021429177822689	0.02034221950466388	-0.005278976908707892	-0.2664787512607005	0.0817383374542822	0.04667600346362076	0.3584066150246943	-19.12395334347952	-18.2796889253413	4.009727842359271	-8.330797691095217	-724.3948694622494	-75.67893202977656	-6.261625381216261	0.3373397075891694	0.6697526572740569	0.0950930328112865	-2.158787371310457	0.2720191000588955	-0.6647601788793294	2.134028851690038	-2.156235748193227	-2.156235748197812	-0.3020943076528683	-0.006501361491942561	-0.4679558872297546	0.2153774860910757	-2.007471179506205e-07	-9.408742011629176e-08	1.30908536926176e-06	1.233816963090207e-07	-2.118557024322196e-07	5.432517400364468e-08	-1.860019603489841e-07
